TITLE "Samination - Mix 46 - Johnny's Had Enough"
PERFORMER "Various Artists"
FILE "samination_mix46-johnnys_had_enough.ogg" WAVE
	TRACK 01 AUDIO
		TITLE "Sacred Melody"
		PERFORMER "DJ Neutron"
		INDEX 01 00:00:00
	TRACK 02 AUDIO
		TITLE "Finary Binary"
		PERFORMER "DJ Lowgi"
		INDEX 01 04:25:40
	TRACK 03 AUDIO
		TITLE "Unleashed"
		PERFORMER "Shox"
		INDEX 01 06:50:30
	TRACK 04 AUDIO
		TITLE "The Reconnection"
		PERFORMER "Ruboy"
		INDEX 01 10:08:00
	TRACK 05 AUDIO
		TITLE "Metal Gear"
		PERFORMER "Spirit Wolf"
		INDEX 01 15:19:30
	TRACK 06 AUDIO
		TITLE "Dr Wily (2011 Mix)"
		PERFORMER "Audio Warfare"
		INDEX 01 19:38:60
	TRACK 07 AUDIO
		TITLE "Light"
		PERFORMER "Pex L"
		INDEX 01 23:27:00
	TRACK 08 AUDIO
		TITLE "Here's Johnny (JTS remix)"
		PERFORMER "Ganar"
		INDEX 01 27:36:20
	TRACK 09 AUDIO
		TITLE "Had Enough"
		PERFORMER "Intraspekt & Outsider"
		INDEX 01 30:23:60
	TRACK 10 AUDIO
		TITLE "Sweetness (Auscore remix)"
		PERFORMER "Samba D & Ellie"
		INDEX 01 34:53:60
	TRACK 11 AUDIO
		TITLE "Forever Yours (Angel-0A remix)"
		PERFORMER "Interstate"
		INDEX 01 39:44:00
	TRACK 12 AUDIO
		TITLE "Stars (S3rl remix)"
		PERFORMER "JTS ft Nathalie"
		INDEX 01 43:58:40
	TRACK 13 AUDIO
		TITLE "Overdrive"
		PERFORMER "DJ 3star"
		INDEX 01 47:41:40
	TRACK 14 AUDIO
		TITLE "The Truth"
		PERFORMER "DJ 3star"
		INDEX 01 51:19:40
	TRACK 15 AUDIO
		TITLE "Make It Pound"
		PERFORMER "Legion Of The Lost"
		INDEX 01 54:47:00
	TRACK 16 AUDIO
		TITLE "Gantz"
		PERFORMER "Juanma"
		INDEX 01 57:44:00
	TRACK 17 AUDIO
		TITLE "Burning Love (The Viper remix)"
		PERFORMER "Critical Mass"
		INDEX 01 60:50:30
	TRACK 18 AUDIO
		TITLE "Gladiators"
		PERFORMER "Hellsystem"
		INDEX 01 63:55:00
	TRACK 19 AUDIO
		TITLE "Fake Promise"
		PERFORMER "DJ Sharpnel"
		INDEX 01 67:24:20
	TRACK 20 AUDIO
		TITLE "The Power Of Underground"
		PERFORMER "DJ Sharpnel"
		INDEX 01 73:50:30
